<?xml version="1.0" encoding="UTF-8"?>
<svg version="1.1" xmlns="http://www.w3.org/2000/svg" width="128" height="128">
    <defs id="defs1">
        <linearGradient id="linearGradient1073">
            <stop stop-color="#e375ae" id="stop1073" offset="0"/>
            <stop stop-color="#31a7de" id="stop1075" offset="1"/>
        </linearGradient>
    </defs>
    
    <path fill="url(#linearGradient1073)" d="M0 0 C0.77254623 -0.0065712 1.54509247 -0.0131424 2.34104919 -0.01991272 C4.90339246 -0.03965944 7.46567708 -0.05131135 10.02807617 -0.0612793 C10.90260626 -0.06535482 11.77713634 -0.06943035 12.67816734 -0.07362938 C17.30692688 -0.09449601 21.93565671 -0.10879513 26.56445312 -0.11816406 C31.34631134 -0.12922965 36.12770435 -0.1636294 40.90939808 -0.20333576 C44.58543261 -0.22947729 48.26135589 -0.2378537 51.9374752 -0.24144554 C53.70013254 -0.24631791 55.4627847 -0.25795043 57.22535133 -0.27648354 C59.69357819 -0.30082315 62.16059621 -0.29991985 64.62890625 -0.29296875 C65.71931717 -0.31218384 65.71931717 -0.31218384 66.83175659 -0.33178711 C71.66490667 -0.28222316 74.11770496 0.74422046 77.50854492 4.17700195 C78.68437413 6.52866037 78.64175834 7.93773747 78.65571594 10.55989075 C78.66287125 11.48097122 78.67002655 12.4020517 78.67739868 13.3510437 C78.68008759 14.36457916 78.68277649 15.37811462 78.68554688 16.42236328 C78.69211807 17.48751663 78.69868927 18.55266998 78.70545959 19.65010071 C78.72522298 23.18641219 78.73686146 26.72268117 78.74682617 30.2590332 C78.7509017 31.46454016 78.75497723 32.67004711 78.75917625 33.91208458 C78.78004912 40.29148565 78.79434607 46.67086512 78.80371094 53.05029297 C78.81478299 59.64811795 78.84918902 66.24560638 78.88888264 72.84331226 C78.91499419 77.90903868 78.92339789 82.97468423 78.92699242 88.04047203 C78.93187183 90.47298139 78.94352405 92.90548682 78.96203041 95.33793068 C78.98630683 98.74004623 78.98547755 102.14128188 78.97851562 105.54345703 C78.99132568 106.5509198 79.00413574 107.55838257 79.01733398 108.59637451 C78.98454879 112.98519281 78.9402364 115.4738054 76.60417175 119.27909851 C72.9094862 122.62518872 69.78394345 122.33651772 65.01708984 122.35400391 C63.85827049 122.3638607 63.85827049 122.3638607 62.67604065 122.37391663 C60.11369738 122.39366335 57.55141276 122.40531525 54.98901367 122.4152832 C54.11448359 122.41935873 53.2399535 122.42343426 52.3389225 122.42763329 C47.71016297 122.44849991 43.08143313 122.46279904 38.45263672 122.47216797 C33.67077851 122.48323356 28.88938549 122.5176333 24.10769176 122.55733967 C20.43165723 122.5834812 16.75573395 122.5918576 13.07961464 122.59544945 C11.3169573 122.60032182 9.55430515 122.61195434 7.79173851 122.63048744 C5.32351166 122.65482706 2.85649363 122.65392375 0.38818359 122.64697266 C-0.33875702 122.65978271 -1.06569763 122.67259277 -1.81466675 122.68579102 C-6.64781683 122.63622707 -9.10061512 121.60978344 -12.49145508 118.17700195 C-13.66728429 115.82534353 -13.6246685 114.41626644 -13.6386261 111.79411316 C-13.6457814 110.87303268 -13.65293671 109.95195221 -13.66030884 109.00296021 C-13.66299774 107.98942474 -13.66568665 106.97588928 -13.66845703 105.93164062 C-13.67502823 104.86648727 -13.68159943 103.80133392 -13.68836975 102.7039032 C-13.70813314 99.16759172 -13.71977162 95.63132274 -13.72973633 92.0949707 C-13.73381186 90.88946375 -13.73788738 89.68395679 -13.74208641 88.44191933 C-13.76295928 82.06251826 -13.77725622 75.68313879 -13.78662109 69.30371094 C-13.79769314 62.70588595 -13.83209918 56.10839753 -13.87179279 49.51069164 C-13.89790434 44.44496522 -13.90630805 39.37931968 -13.90990257 34.31353188 C-13.91478198 31.88102251 -13.92643421 29.44851708 -13.94494057 27.01607323 C-13.96921698 23.61395768 -13.96838771 20.21272202 -13.96142578 16.81054688 C-13.97423584 15.80308411 -13.9870459 14.79562134 -14.00024414 13.75762939 C-13.96745894 9.3688111 -13.92314656 6.88019851 -11.58708191 3.0749054 C-7.89239635 -0.27118482 -4.76685361 0.01748619 0 0 Z M0.50854492 13.17700195 C-2.04035501 17.00035185 -1.85901116 20.18164837 -1.86645508 24.61450195 C-1.89094727 25.37827148 -1.91543945 26.14204102 -1.94067383 26.92895508 C-1.94454102 27.66952148 -1.9484082 28.41008789 -1.95239258 29.1730957 C-1.96061035 29.84526123 -1.96882813 30.51742676 -1.97729492 31.20996094 C-1.25328815 34.14127879 0.19087143 35.28442634 2.50854492 37.17700195 C5.29621672 37.77999533 5.29621672 37.77999533 8.40698242 37.69458008 C10.18903076 37.71349304 10.18903076 37.71349304 12.00708008 37.73278809 C13.92593018 37.7206427 13.92593018 37.7206427 15.88354492 37.70825195 C17.20016113 37.71207886 18.51677734 37.71590576 19.87329102 37.71984863 C22.65749927 37.72573919 25.44119342 37.71719609 28.2253418 37.69848633 C31.79003825 37.67569571 35.3535301 37.68882136 38.91818237 37.71277618 C42.32339922 37.73072526 45.72829386 37.71814973 49.13354492 37.70825195 C50.41277832 37.71634888 51.69201172 37.7244458 53.01000977 37.73278809 C54.19804199 37.72017944 55.38607422 37.7075708 56.61010742 37.69458008 C58.17752686 37.68980652 58.17752686 37.68980652 59.77661133 37.68493652 C63.190302 37.05024631 64.37582329 35.86016716 66.50854492 33.17700195 C67.07992056 31.21802936 67.07992056 31.21802936 66.96948242 29.1730957 C66.96561523 28.4325293 66.96174805 27.69196289 66.95776367 26.92895508 C66.93327148 26.16518555 66.9087793 25.40141602 66.88354492 24.61450195 C66.88225586 23.84686523 66.8809668 23.07922852 66.87963867 22.28833008 C66.8190779 18.42926341 66.69051229 16.449953 64.50854492 13.17700195 C61.7359541 12.71624557 61.7359541 12.71624557 58.43823242 12.78881836 C57.16351074 12.77936188 55.88878906 12.7699054 54.57543945 12.76016235 C53.17813813 12.76553187 51.78083963 12.77168478 50.38354492 12.77856445 C48.95629731 12.77654439 47.52905071 12.77363351 46.10180664 12.76986694 C43.109031 12.76544036 40.11652377 12.77188504 37.1237793 12.78588867 C33.28326046 12.80298116 29.4433705 12.7931417 25.60287476 12.77517128 C22.65522504 12.76434221 19.70772497 12.76777565 16.7600708 12.77555466 C15.34385097 12.77755912 13.92761766 12.77508877 12.51141357 12.768116 C10.53389742 12.76051684 8.55633377 12.77414851 6.57885742 12.78881836 C4.88913818 12.79239853 4.88913818 12.79239853 3.1652832 12.79605103 C1.85019775 12.98462173 1.85019775 12.98462173 0.50854492 13.17700195 Z M1.50854492 52.17700195 C1.19016092 54.31686516 1.19016092 54.31686516 1.25854492 56.67700195 C1.25338867 57.47106445 1.24823242 58.26512695 1.24291992 59.08325195 C1.31914584 61.39592947 1.31914584 61.39592947 3.50854492 63.17700195 C6.14293842 63.45829661 6.14293842 63.45829661 9.07104492 63.36450195 C10.06233398 63.35805664 11.05362305 63.35161133 12.07495117 63.3449707 C14.45620364 63.4482563 14.45620364 63.4482563 15.50854492 62.17700195 C15.60705663 60.34584312 15.63827121 58.51080262 15.63354492 56.67700195 C15.63612305 55.67668945 15.63870117 54.67637695 15.64135742 53.64575195 C15.78724874 51.23300573 15.78724874 51.23300573 14.50854492 50.17700195 C12.69927211 50.05212438 10.88458385 50.00129349 9.07104492 49.98950195 C8.08233398 49.97532227 7.09362305 49.96114258 6.07495117 49.9465332 C3.34270077 49.91549443 3.34270077 49.91549443 1.50854492 52.17700195 Z M25.50854492 51.17700195 C25.41003321 53.00816078 25.37881863 54.84320129 25.38354492 56.67700195 C25.3809668 57.67731445 25.37838867 58.67762695 25.37573242 59.70825195 C25.2298411 62.12099818 25.2298411 62.12099818 26.50854492 63.17700195 C28.50654064 63.27574011 30.5081165 63.30671994 32.50854492 63.30200195 C33.60166992 63.30458008 34.69479492 63.3071582 35.82104492 63.30981445 C38.42684846 63.4824795 38.42684846 63.4824795 39.50854492 62.17700195 C39.60705663 60.34584312 39.63827121 58.51080262 39.63354492 56.67700195 C39.63612305 55.67668945 39.63870117 54.67637695 39.64135742 53.64575195 C39.78724874 51.23300573 39.78724874 51.23300573 38.50854492 50.17700195 C36.5105492 50.07826379 34.50897334 50.04728396 32.50854492 50.05200195 C31.41541992 50.04942383 30.32229492 50.0468457 29.19604492 50.04418945 C26.59024138 49.8715244 26.59024138 49.8715244 25.50854492 51.17700195 Z M49.50854492 51.17700195 C49.41003321 53.00816078 49.37881863 54.84320129 49.38354492 56.67700195 C49.3809668 57.67731445 49.37838867 58.67762695 49.37573242 59.70825195 C49.2298411 62.12099818 49.2298411 62.12099818 50.50854492 63.17700195 C52.31781773 63.30187953 54.13250599 63.35271041 55.94604492 63.36450195 C57.42911133 63.38577148 57.42911133 63.38577148 58.94213867 63.4074707 C61.67438907 63.43850948 61.67438907 63.43850948 63.50854492 61.17700195 C63.82692892 59.03713875 63.82692892 59.03713875 63.75854492 56.67700195 C63.76370117 55.88293945 63.76885742 55.08887695 63.77416992 54.27075195 C63.69794401 51.95807444 63.69794401 51.95807444 61.50854492 50.17700195 C58.87415142 49.89570729 58.87415142 49.89570729 55.94604492 49.98950195 C54.95475586 49.99594727 53.9634668 50.00239258 52.94213867 50.0090332 C50.5608862 49.90574761 50.5608862 49.90574761 49.50854492 51.17700195 Z M1.50854492 74.17700195 C1.27035264 76.4731575 1.27035264 76.4731575 1.25854492 79.11450195 C1.23276367 80.01040039 1.20698242 80.90629883 1.18041992 81.8293457 C1.28870117 82.60407227 1.39698242 83.37879883 1.50854492 84.17700195 C4.66632092 86.28218595 5.46251627 86.42989539 9.07104492 86.36450195 C9.85608398 86.35805664 10.64112305 86.35161133 11.44995117 86.3449707 C13.57209164 86.30064285 13.57209164 86.30064285 15.50854492 85.17700195 C15.53541771 83.36458144 15.55488208 81.55204962 15.57104492 79.73950195 C15.58264648 78.73016602 15.59424805 77.72083008 15.60620117 76.6809082 C15.79467168 74.23679128 15.79467168 74.23679128 14.50854492 73.17700195 C12.5105492 73.07826379 10.50897334 73.04728396 8.50854492 73.05200195 C7.41541992 73.04942383 6.32229492 73.0468457 5.19604492 73.04418945 C2.59024138 72.8715244 2.59024138 72.8715244 1.50854492 74.17700195 Z M25.50854492 74.17700195 C25.38399632 75.8193056 25.33285968 77.46752472 25.32104492 79.11450195 C25.30686523 80.01040039 25.29268555 80.90629883 25.27807617 81.8293457 C25.27659723 84.36814729 25.27659723 84.36814729 27.50854492 86.17700195 C29.87809878 86.4959971 29.87809878 86.4959971 32.50854492 86.42700195 C33.83885742 86.43473633 33.83885742 86.43473633 35.19604492 86.44262695 C37.70254732 86.39753058 37.70254732 86.39753058 39.50854492 84.17700195 C39.78944779 81.77208773 39.78944779 81.77208773 39.69604492 79.11450195 C39.68959961 78.21602539 39.6831543 77.31754883 39.67651367 76.3918457 C39.75249236 74.20374597 39.75249236 74.20374597 38.50854492 73.17700195 C36.5105492 73.07826379 34.50897334 73.04728396 32.50854492 73.05200195 C31.41541992 73.04942383 30.32229492 73.0468457 29.19604492 73.04418945 C26.59024138 72.8715244 26.59024138 72.8715244 25.50854492 74.17700195 Z M49.50854492 74.17700195 C49.43627991 76.02987697 49.42473272 77.88534073 49.44604492 79.73950195 C49.45506836 80.75141602 49.4640918 81.76333008 49.47338867 82.8059082 C49.48499023 83.58836914 49.4965918 84.37083008 49.50854492 85.17700195 C51.84821182 86.3468354 53.34246019 86.34312605 55.94604492 86.36450195 C57.11973633 86.38577148 57.11973633 86.38577148 58.31713867 86.4074707 C60.80060479 86.31786259 60.80060479 86.31786259 63.50854492 84.17700195 C63.91069249 81.77595785 63.91069249 81.77595785 63.75854492 79.11450195 C63.74307617 78.21602539 63.72760742 77.31754883 63.71166992 76.3918457 C63.74913608 74.20440196 63.74913608 74.20440196 62.50854492 73.17700195 C60.5105492 73.07826379 58.50897334 73.04728396 56.50854492 73.05200195 C55.41541992 73.04942383 54.32229492 73.0468457 53.19604492 73.04418945 C50.59024138 72.8715244 50.59024138 72.8715244 49.50854492 74.17700195 Z M1.50854492 97.17700195 C1.22792166 99.31843936 1.22792166 99.31843936 1.32104492 101.67700195 C1.32749023 102.47106445 1.33393555 103.26512695 1.34057617 104.08325195 C1.38178656 106.23536587 1.38178656 106.23536587 2.50854492 108.17700195 C4.4876389 108.20386748 6.46683463 108.22333571 8.44604492 108.23950195 C10.09926758 108.2569043 10.09926758 108.2569043 11.78588867 108.2746582 C14.42302126 108.48962767 14.42302126 108.48962767 15.50854492 107.17700195 C15.60705663 105.34584312 15.63827121 103.51080262 15.63354492 101.67700195 C15.63612305 100.67668945 15.63870117 99.67637695 15.64135742 98.64575195 C15.78724874 96.23300573 15.78724874 96.23300573 14.50854492 95.17700195 C12.69927211 95.05212438 10.88458385 95.00129349 9.07104492 94.98950195 C8.08233398 94.97532227 7.09362305 94.96114258 6.07495117 94.9465332 C3.34270077 94.91549443 3.34270077 94.91549443 1.50854492 97.17700195 Z M25.50854492 97.17700195 C25.22764205 99.58191617 25.22764205 99.58191617 25.32104492 102.23950195 C25.32749023 103.13797852 25.33393555 104.03645508 25.34057617 104.9621582 C25.26459749 107.15025794 25.26459749 107.15025794 26.50854492 108.17700195 C28.50654064 108.27574011 30.5081165 108.30671994 32.50854492 108.30200195 C33.60166992 108.30458008 34.69479492 108.3071582 35.82104492 108.30981445 C38.42684846 108.4824795 38.42684846 108.4824795 39.50854492 107.17700195 C39.63309352 105.53469831 39.68423016 103.88647919 39.69604492 102.23950195 C39.71731445 100.8956543 39.71731445 100.8956543 39.73901367 99.5246582 C39.74049261 96.98585662 39.74049261 96.98585662 37.50854492 95.17700195 C35.13899106 94.8580068 35.13899106 94.8580068 32.50854492 94.92700195 C31.62166992 94.9218457 30.73479492 94.91668945 29.82104492 94.91137695 C27.31454253 94.95647333 27.31454253 94.95647333 25.50854492 97.17700195 Z M49.50854492 96.17700195 C49.41003321 98.00816078 49.37881863 99.84320129 49.38354492 101.67700195 C49.3809668 102.67731445 49.37838867 103.67762695 49.37573242 104.70825195 C49.2298411 107.12099818 49.2298411 107.12099818 50.50854492 108.17700195 C52.52818691 108.24944248 54.55021616 108.26077383 56.57104492 108.23950195 C57.67577148 108.23047852 58.78049805 108.22145508 59.91870117 108.2121582 C60.77334961 108.20055664 61.62799805 108.18895508 62.50854492 108.17700195 C63.6852769 105.82353799 63.67478359 104.29639865 63.69604492 101.67700195 C63.71731445 100.4859082 63.71731445 100.4859082 63.73901367 99.27075195 C63.70520795 96.95666878 63.70520795 96.95666878 61.50854492 95.17700195 C58.87415142 94.89570729 58.87415142 94.89570729 55.94604492 94.98950195 C54.95475586 94.99594727 53.9634668 95.00239258 52.94213867 95.0090332 C50.5608862 94.90574761 50.5608862 94.90574761 49.50854492 96.17700195 Z " transform="translate(31.491455078125,2.822998046875)"/>
</svg>
