<svg width="128" height="128" xmlns="http://www.w3.org/2000/svg" xmlns:xlink="http://www.w3.org/1999/xlink" version="1.1" xml:space="preserve">
 <defs id="defs1">
  <linearGradient id="linearGradient3">
   <stop offset="0.13918" id="stop4" stop-color="#06c8fa"/>
   <stop offset="0.9201" id="stop3" stop-color="#067da0"/>
  </linearGradient>
  <linearGradient xlink:href="#linearGradient3" id="linearGradient4" x1="0.53171" y1="0.0798" x2="0.52993" y2="0.98732"/>
 </defs>
 <g>
  <title>Layer 1</title>
  <g id="layer2">
   <path d="m-353.86646,-239.26607c0,-0.16193 2.85791,-4.6539 6.35089,-9.98211c10.59417,-16.16042 17.40074,-31.28907 21.81975,-48.49782c1.71871,-6.69311 2.31229,-10.44204 2.31229,-14.60394c0,-7.86222 -0.35215,-8.22531 -7.40686,-7.63696c-3.06725,0.25578 -10.04757,1.20928 -15.51187,2.11888c-14.89415,2.47929 -20.53492,3.04712 -30.23926,3.04413c-23.24343,-0.00737 -40.18021,-6.46075 -53.5762,-20.41464c-7.55646,-7.87117 -11.54003,-14.54199 -14.70794,-24.62962c-3.02914,-9.64573 -3.98429,-17.64126 -4.53167,-37.93429c-0.56311,-20.87577 -1.12237,-24.04763 -4.24006,-24.04763c-6.03488,0 -28.24138,24.20701 -39.45995,43.01478c-5.61578,9.41477 -11.64983,22.93057 -13.70973,30.70875c-1.63852,6.18706 -1.75188,7.71596 -2.05558,27.7251c-0.21816,14.3746 -0.06357,22.96942 0.48131,26.75722c1.64464,11.4329 10.83324,29.80196 22.22859,44.43753c4.92266,6.32238 4.85385,6.37042 -3.57202,2.4946c-9.41047,-4.3287 -22.34905,-13.19109 -36.24079,-24.8234c-33.21337,-27.81138 -53.88053,-65.11947 -60.75307,-109.67067c-1.70836,-11.0745 -1.71652,-38.51947 -0.01474,-49.45007c2.98608,-19.17919 7.72027,-33.86549 16.80241,-52.1242c10.87998,-21.87302 19.12404,-33.45776 53.77462,-75.56535c27.13783,-32.97801 37.82823,-46.81002 48.57156,-62.84546c15.47505,-23.09798 22.84714,-37.80638 31.78219,-63.41032c4.71022,-13.49735 6.86847,-17.43408 10.21179,-18.62669c3.56571,-1.27195 8.85514,2.71399 19.0317,14.34158c29.81938,34.07115 45.24015,63.48488 51.0522,97.37748c1.5809,9.21895 1.57744,28.33296 -0.00737,39.26c-1.37658,9.49291 -4.10796,23.69852 -8.20556,42.67609c-6.21782,28.79722 -6.48073,35.22301 -1.82543,44.61777c7.25581,14.64286 24.57116,23.14929 42.50978,20.88359c10.53571,-1.33068 20.86646,-5.8349 28.21142,-12.30018c4.67894,-4.11858 9.17678,-10.64452 16.03294,-23.26236c3.40168,-6.26036 6.8679,-12.31044 7.70267,-13.44464c1.85693,-2.52296 4.86644,-4.1733 6.6044,-3.62169c2.00191,0.63539 4.91619,4.76512 8.71749,12.3533c8.73021,17.42733 15.27854,38.38189 18.15456,58.09415c1.486,10.18511 1.66408,35.61219 0.31311,44.70827c-6.18441,41.64004 -23.35202,74.67359 -53.9958,103.8976c-8.82288,8.41411 -21.01176,17.92004 -29.24877,22.8107c-9.49175,5.63562 -33.36327,16.77639 -33.36327,15.57052l0.00027,0l0,-0.00001z" id="path2" transform="translate(173.049, 188.702) scale(0.264583)" fill="url(#linearGradient4)" stroke-width="0.27591"/>
  </g>
 </g>
</svg>