<svg width="128" height="128" xmlns="http://www.w3.org/2000/svg" data-name="Layer 1">

 <g>
  <title>Layer 1</title>
  <ellipse ry="40" rx="35" id="svg_3" cy="65" cx="65" fill="#ffffff"/>
  <path fill="#edae49" id="svg_1" d="m122.88784,84.37618l-42.93077,-67.79661c-3.61299,-5.20695 -9.61692,-8.34175 -15.93964,-8.34175s-12.32666,3.08166 -16.09904,8.50114l-42.71824,67.53095c-5.41948,7.75729 -6.42899,17.05542 -2.65661,24.22825c3.71925,7.17284 11.52967,11.26401 21.30599,11.26401l80.33579,0c9.82945,0 17.58674,-4.09117 21.30599,-11.26401c3.71925,-7.17284 2.70974,-16.41783 -2.60347,-24.12199zm-64.18362,-44.25907c0,-2.92227 2.39095,-5.31321 5.31321,-5.31321s5.31321,2.39095 5.31321,5.31321l0,31.87928c0,2.92227 -2.39095,5.31321 -5.31321,5.31321s-5.31321,-2.39095 -5.31321,-5.31321l0,-31.87928zm5.31321,63.75856c-4.40997,0 -7.96982,-3.55985 -7.96982,-7.96982s3.55985,-7.96982 7.96982,-7.96982s7.96982,3.55985 7.96982,7.96982s-3.55985,7.96982 -7.96982,7.96982z"/>
 </g>
</svg>