<svg width="128" height="128" xmlns="http://www.w3.org/2000/svg" clip-rule="evenodd" version="1.1">
 <defs>
  <linearGradient y2="0" x2="1" y1="0" x1="0" id="svg_7">
   <stop offset="0" stop-opacity="0.99609" stop-color="#fed843"/>
   <stop offset="0.76172" stop-opacity="0.99219" stop-color="#fabe2c"/>
  </linearGradient>
 </defs>
 <g>
  <title>Layer 1</title>
  <path id="svg_2" opacity="0.978" d="m47.7999,2.96632c15.57646,0 31.15245,0 46.72891,0c1.9545,1.74736 2.35218,3.8136 1.19207,6.19874c-5.89643,9.63302 -11.69749,19.3285 -17.40413,29.08636c5.23793,0.39691 10.48302,0.63533 15.73525,0.71524c2.07944,1.06132 2.79467,2.73021 2.14572,5.00667c-19.37962,27.24009 -39.0091,54.26036 -58.88796,81.06035c-1.27155,0 -2.54305,0 -3.8146,0c-1.75038,-1.33178 -2.30669,-3.08029 -1.66889,-5.24508c6.48401,-17.14713 12.92117,-34.31284 19.31144,-51.49716c-5.71528,-0.3972 -11.43718,-0.63561 -17.16572,-0.71524c-1.5659,-0.66565 -2.36057,-1.85771 -2.38412,-3.57619c4.69745,-19.74353 9.54519,-39.45231 14.54318,-59.12637c0.49204,-0.72796 1.04835,-1.36374 1.66889,-1.90731l-0.00001,0l-0.00002,0z" fill="url(#svg_7)"/>
 </g>
</svg>