<svg width="128" height="128" xmlns="http://www.w3.org/2000/svg" version="1.1" xml:space="preserve">
 <g>
  <title>Layer 1</title>
  <ellipse ry="35" rx="35" id="svg_3" cy="65" cx="65" fill="#ffffff"/>
  <path d="m64,0.0385c-35.32499,0 -63.9615,28.63651 -63.9615,63.9615s28.63651,63.9615 63.9615,63.9615s63.9615,-28.63651 63.9615,-63.9615c-0.03823,-35.30925 -28.65225,-63.92327 -63.9615,-63.9615zm21.32042,77.75045c2.16595,1.99355 2.30586,5.36552 0.31231,7.53147c-1.99355,2.16595 -5.36552,2.30586 -7.53147,0.31231c-0.10843,-0.09969 -0.21237,-0.20388 -0.31231,-0.31231l-13.78895,-13.7837l-13.7837,13.7837c-2.11748,2.04502 -5.49169,1.9863 -7.53671,-0.13117c-1.9948,-2.06551 -1.9948,-5.34004 0,-7.40554l13.7837,-13.7837l-13.7837,-13.7837c-2.04502,-2.11748 -1.9863,-5.49169 0.13117,-7.53671c2.06551,-1.9948 5.34004,-1.9948 7.40554,0l13.7837,13.7837l13.78895,-13.7837c1.99355,-2.16595 5.36552,-2.30586 7.53147,-0.31231c2.16595,1.99355 2.30586,5.36552 0.31231,7.53147c-0.09969,0.10843 -0.20388,0.21237 -0.31231,0.31231l-13.7837,13.78895l13.7837,13.78895l0,-0.00002z" id="svg_2" fill="#880d1e"/>
 </g>

</svg>