<svg width="128" height="128" xmlns="http://www.w3.org/2000/svg" clip-rule="evenodd" version="1.1">

 <g>
  <title>Layer 1</title>
  <g id="svg_5">
   <g id="svg_1">
    <path id="svg_2" opacity="0.906" d="m126.69048,60.05137c0,2.28556 0,4.57121 0,6.85677c-4.00435,4.5574 -8.57586,5.04717 -13.71354,1.46931c-15.90653,-16.39816 -32.23211,-32.23407 -48.97693,-47.50763c-16.74482,15.27355 -33.0704,31.10946 -48.97693,47.50763c-5.13756,3.57786 -9.70875,3.08809 -13.71354,-1.46931c0,-2.28556 0,-4.57121 0,-6.85677c16.75442,-17.24478 33.73306,-34.38671 50.93601,-51.42578c7.83631,-4.57118 15.67262,-4.57118 23.50893,0c4.7344,4.7344 9.46891,9.46891 14.20331,14.20331c-0.21893,-4.76115 1.25038,-8.84249 4.40792,-12.24423c5.12436,-1.68853 8.87952,-0.21922 11.26469,4.40792c0.32619,8.16279 0.65335,16.32568 0.97954,24.48847c6.91848,6.75412 13.61265,13.61089 20.08054,20.57031z" fill="#abb0b3"/>
   </g>
   <g id="svg_3">
    <path id="svg_4" opacity="0.958" d="m61.06138,33.60383c1.98582,-0.15878 3.9449,0.00441 5.87723,0.48977c14.55849,14.23142 28.7618,28.76121 42.60993,43.58947c0.65335,11.42798 0.65335,22.85558 0,34.28385c-1.37723,4.9692 -4.47845,8.39759 -9.30562,10.28516c-8.4831,0.48977 -16.97237,0.65237 -25.46801,0.48977c0,-10.77493 0,-21.54985 0,-32.32478c-7.18325,0 -14.3666,0 -21.54985,0c0,10.77493 0,21.54985 0,32.32478c-8.49564,0.1626 -16.98491,0 -25.46801,-0.48977c-4.82687,-1.88757 -7.92878,-5.31596 -9.30562,-10.28516c-0.65306,-11.42828 -0.65306,-22.85587 0,-34.28385c14.04609,-14.86215 28.24941,-29.55523 42.60993,-44.07924z" fill="#abb0b3"/>
   </g>
  </g>
 </g>
</svg>