<svg width="512" height="512" xmlns="http://www.w3.org/2000/svg" xml:space="preserve" version="1.1">
 <defs id="defs1">
  <linearGradient y2="0" x2="0.5" y1="1" x1="0.5" id="svg_1">
   <stop offset="0.22266" stop-opacity="0.99219" stop-color="#0e8472"/>
   <stop offset="1" stop-opacity="0.99609" stop-color="#0fc18e"/>
   <stop offset="NaN" stop-opacity="0" stop-color="0"/>
   <stop offset="NaN" stop-opacity="0" stop-color="0"/>
   <stop offset="NaN" stop-opacity="0" stop-color="0"/>
   <stop offset="NaN" stop-opacity="0" stop-color="0"/>
   <stop offset="NaN" stop-opacity="0" stop-color="0"/>
   <stop offset="NaN" stop-opacity="0" stop-color="0"/>
   <stop offset="NaN" stop-opacity="0" stop-color="0"/>
   <stop offset="NaN" stop-opacity="0" stop-color="0"/>
   <stop offset="NaN" stop-opacity="0" stop-color="0"/>
   <stop offset="NaN" stop-opacity="0" stop-color="0"/>
   <stop offset="NaN" stop-opacity="0" stop-color="0"/>
   <stop offset="NaN" stop-opacity="0" stop-color="0"/>
   <stop offset="NaN" stop-opacity="0" stop-color="0"/>
   <stop offset="NaN" stop-opacity="0" stop-color="0"/>
   <stop offset="NaN" stop-opacity="0" stop-color="0"/>
   <stop offset="NaN" stop-opacity="0" stop-color="0"/>
   <stop offset="NaN" stop-opacity="0" stop-color="0"/>
   <stop offset="NaN" stop-opacity="0" stop-color="0"/>
  </linearGradient>
  <linearGradient y2="0" x2="0.5" y1="1" x1="0.5" id="svg_2">
   <stop offset="0.19141" stop-opacity="0.99219" stop-color="#0874aa"/>
   <stop offset="1" stop-opacity="0.99609" stop-color="#0ab0e2"/>
   <stop offset="NaN" stop-opacity="0" stop-color="0"/>
   <stop offset="NaN" stop-opacity="0" stop-color="0"/>
   <stop offset="NaN" stop-opacity="0" stop-color="0"/>
   <stop offset="NaN" stop-opacity="0" stop-color="0"/>
   <stop offset="NaN" stop-opacity="0" stop-color="0"/>
   <stop offset="NaN" stop-opacity="0" stop-color="0"/>
   <stop offset="NaN" stop-opacity="0" stop-color="0"/>
   <stop offset="NaN" stop-opacity="0" stop-color="0"/>
   <stop offset="NaN" stop-opacity="0" stop-color="0"/>
   <stop offset="NaN" stop-opacity="0" stop-color="0"/>
   <stop offset="NaN" stop-opacity="0" stop-color="0"/>
   <stop offset="NaN" stop-opacity="0" stop-color="0"/>
   <stop offset="NaN" stop-opacity="0" stop-color="0"/>
   <stop offset="NaN" stop-opacity="0" stop-color="0"/>
   <stop offset="NaN" stop-opacity="0" stop-color="0"/>
   <stop offset="NaN" stop-opacity="0" stop-color="0"/>
   <stop offset="NaN" stop-opacity="0" stop-color="0"/>
   <stop offset="NaN" stop-opacity="0" stop-color="0"/>
   <stop offset="NaN" stop-opacity="0" stop-color="0"/>
   <stop offset="NaN" stop-opacity="0" stop-color="0"/>
   <stop offset="NaN" stop-opacity="0" stop-color="0"/>
  </linearGradient>
 </defs>
 <g>
  <title>Layer 1</title>
  <g id="svg_4">
   <ellipse fill="#e3eef2" cx="255.99999" cy="255.99999" id="svg_6" rx="255.57028" ry="255.57028"/>
   <g id="svg_3">
    <path fill="url(#svg_2)" id="path56" d="m250.63249,106.57692c-3.04057,-0.88977 -6.94069,-4.44407 -8.26621,-7.5332c-1.43628,-3.34727 -1.41671,-40.24987 0.02322,-43.69598c3.80757,-9.11283 15.49755,-11.31151 22.56497,-4.24409c3.97177,3.97177 4.28904,6.14703 4.0393,27.69598c-0.21396,18.46111 -0.26507,19.04885 -1.88253,21.65039c-3.08548,4.96261 -10.73641,7.80732 -16.4787,6.1269l-0.00004,0z"/>
    <path fill="url(#svg_1)" id="path54" d="m315.66471,119.55192c-6.50557,-3.96705 -8.6685,-13.43149 -4.45388,-19.48905c3.63024,-5.21767 17.26832,-20.54766 19.14172,-21.51641c2.54649,-1.31684 8.54013,-1.35146 11.54292,-0.06665c2.76849,1.18454 5.83857,4.34492 6.86828,7.0703c1.00293,2.65445 0.96462,8.72579 -0.06737,10.6718c-1.35751,2.55998 -5.38019,7.6179 -10.79141,13.56855c-2.80668,3.08648 -5.35562,6.04159 -5.66424,6.5669c-0.30866,0.5253 -1.93749,1.76164 -3.61963,2.74744c-3.8496,2.25604 -9.66115,2.45659 -12.95646,0.44709l0.00004,0l0.00004,0.00004z"/>
    <path fill="url(#svg_2)" id="path52" d="m181.10885,119.29645c-2.73635,-1.94333 -17.24022,-19.11362 -19.08,-22.58771c-2.09252,-3.95135 -1.82309,-9.76742 0.62381,-13.46491c3.35388,-5.06805 10.6353,-7.16501 16.44724,-4.73664c2.88005,1.20336 16.83064,17.12646 19.77646,22.5727c2.63075,4.86378 2.64576,9.22087 0.04547,13.23106c-3.89992,6.01453 -12.84062,8.51691 -17.81304,4.98555l0,0l0.00004,-0.00004z"/>
    <path fill="url(#svg_1)" id="path50" d="m238.57328,311.87355c-20.53702,-4.4528 -34.98088,-15.11908 -42.39675,-31.30845c-3.64517,-7.95771 -4.94948,-14.85176 -4.83656,-25.56447c0.12449,-11.80879 1.63147,-17.80215 7.33425,-29.16837c4.68729,-9.34235 7.60209,-13.50682 19.91913,-28.4595c13.89759,-16.87143 18.5888,-23.80243 22.78529,-33.66412c2.63812,-6.19955 4.54787,-15.73893 3.94955,-19.72871c-0.35714,-2.38149 -0.22881,-2.92573 0.68978,-2.92573c2.39698,0 18.24979,18.88586 31.97089,38.08766c3.4588,4.8404 9.63897,13.00398 13.73367,18.14131c13.75636,17.25911 16.08134,20.64654 20.46376,29.81524c4.2057,8.79896 6.03563,16.14714 6.50569,26.12364c1.4326,30.40635 -17.53583,53.19497 -49.0827,58.96781c-2.66214,0.48715 -3.51524,0.41382 -3.79932,-0.32648c-0.20151,-0.52506 2.38946,-4.62372 5.75763,-9.10806c7.1478,-9.51648 9.23556,-13.76037 10.36838,-21.07625c1.56862,-10.13029 -1.41039,-18.56794 -13.3136,-37.70923c-6.60248,-10.61728 -13.0065,-22.43548 -13.00874,-24.00682c-0.00192,-1.66417 -1.26796,-0.89693 -1.7602,1.06714c-0.63991,2.55322 -7.08916,14.39767 -12.49261,22.94345c-5.49392,8.68888 -10.8944,19.25 -12.34994,24.15137c-2.18519,7.35839 -1.21556,17.1337 2.40139,24.20909c1.55277,3.03745 2.81785,4.8378 10.25994,14.60062c4.85201,6.36507 4.68753,6.62722 -3.09901,4.93895l0.00008,-0.00008z"/>
    <path fill="#263143" id="path48" d="m215.22314,395.42408c-6.26075,-3.09901 -9.75638,-10.4223 -8.03184,-16.82672c0.99472,-3.69405 4.25594,-7.54473 8.15837,-9.63293c2.88954,-1.5462 3.20857,-1.55881 39.55141,-1.55881c34.17498,0 36.8157,0.08818 39.27581,1.31163c7.43773,3.69885 10.90493,11.84654 7.99994,18.79923c-1.53408,3.67159 -3.65037,5.76892 -7.79171,7.72186l-3.55711,1.67746l-36.28263,0.00676c-35.51363,0.00576 -36.34708,-0.02554 -39.3222,-1.49817l0,-0.00036l-0.00004,0.00004z"/>
    <path fill="#263143" id="path46" d="m215.41091,434.01991c-4.01548,-1.82417 -7.17178,-5.68666 -8.07015,-9.87574c-0.41154,-1.919 -0.62285,-4.10515 -0.46954,-4.85821c0.15331,-0.75303 0.4627,-2.24367 0.68758,-3.31253c0.5478,-2.60389 4.25329,-6.71464 7.58468,-8.4142c2.57747,-1.31496 4.48782,-1.38092 39.97307,-1.38092l37.26622,0l3.13544,1.65532c4.69734,2.47992 7.28426,6.59776 7.57267,12.05425c0.32924,6.22865 -2.15657,10.66908 -7.54201,13.47236l-3.81622,1.98648l-36.73496,-0.01561c-33.99368,-0.01445 -36.94775,-0.11228 -39.58675,-1.31115l0,0l-0.00004,-0.00004z"/>
    <path fill="url(#svg_1)" id="path44" d="m322.26042,460.77072c-2.41243,-2.27521 -2.61975,-2.78587 -2.61975,-6.45293c0,-3.1862 0.48595,-4.87587 2.43113,-8.45307c6.83805,-12.57531 10.35421,-32.45512 8.29095,-46.87545c-1.18794,-8.30264 -2.53,-13.34911 -5.78365,-21.74786c-1.54228,-3.98118 -2.80416,-8.07751 -2.80416,-9.10298c0,-2.60513 2.21645,-4.55319 9.62504,-8.45939c6.57414,-3.46624 16.55788,-10.59659 24.54365,-17.52887c14.70562,-12.76568 30.06931,-35.01242 37.30437,-54.01705c17.67654,-46.43153 9.08685,-94.37132 -24.4784,-136.61592c-5.92579,-7.45806 -7.15484,-9.79284 -7.15484,-13.59144c0,-8.18595 9.47909,-14.5411 16.37223,-10.9765c5.63674,2.91488 18.5591,14.64781 27.3009,24.78807c27.32183,31.69257 44.18994,70.10563 48.15714,109.6662c1.08815,10.85089 0.44905,37.74341 -1.14039,47.98678c-2.74436,17.68634 -9.90216,41.03721 -17.39597,56.75075c-19.14608,40.14696 -51.41051,72.47055 -91.64221,91.81025c-7.90895,3.80189 -10.56913,4.74525 -14.06959,4.98927c-4.1278,0.28773 -4.43126,0.19282 -6.9364,-2.16986l-0.00004,0z"/>
    <path fill="#263143" id="path43" d="m189.30773,458.6814c1.54737,-1.54737 0.95898,-5.19029 -1.35394,-8.38318c-3.58381,-4.94728 -6.87716,-12.55201 -8.526,-19.68744c-1.32244,-5.72296 -1.48892,-8.06483 -1.16873,-16.44224c0.4171,-10.91278 1.47175,-15.70438 5.19302,-23.59376c5.94356,-12.60076 15.4564,-22.56353 27.13197,-28.41535c9.97377,-4.99884 23.61586,-8.10437 39.33701,-8.95475c43.9217,-2.37585 62.96315,-7.45158 86.3251,-23.01106c10.56969,-7.0396 23.01374,-19.4987 29.87052,-29.90667c8.89899,-13.50782 15.46993,-31.04754 17.63202,-47.06491c1.26804,-9.39383 0.41234,-27.12877 -1.75059,-36.28263c-6.12057,-25.90316 -19.16922,-47.42525 -39.58891,-65.29689c-8.21958,-7.19387 -17.63499,-13.32561 -29.58308,-19.26577c-13.05425,-6.49012 -18.23038,-8.25913 -21.1688,-7.23478c-3.54566,1.23602 -5.45365,3.48121 -5.45365,6.41747c0,3.21918 2.29247,5.50652 7.82569,7.80816c14.65518,6.09611 25.49446,13.35235 36.65242,24.53657c15.46489,15.50123 24.79603,32.44163 29.22353,53.05439c1.64364,7.65217 1.85475,28.40314 0.36527,35.90784c-4.91469,24.76293 -21.19978,46.73211 -43.75486,59.02689c-16.06256,8.75573 -28.25571,11.54352 -59.17888,13.53056c-28.78574,1.84967 -39.8993,4.17083 -56.57971,11.81711c-8.96208,4.10823 -14.06507,7.5942 -21.16403,14.4578c-12.41499,12.00337 -20.44695,26.73344 -22.9131,42.02116c-1.29494,8.02736 -0.50229,21.3155 1.70212,28.53395c3.82786,12.5346 12.02042,25.04429 21.76763,33.23825c4.71255,3.9616 7.43693,4.91041 9.15798,3.18932l0,-0.00004z"/>
    <path fill="url(#svg_2)" id="path42" d="m186.60432,460.95794c0.82264,-0.53163 0.58863,-0.69214 -1.02126,-0.70051c-1.71389,-0.00869 -3.49999,-1.44617 -9.95992,-8.01443c-11.3079,-11.49748 -16.74294,-21.32655 -19.63268,-35.5051c-3.93382,-19.30144 0.90942,-38.48183 14.36549,-56.89054c4.11932,-5.63546 12.5717,-13.81293 18.00866,-17.42287c2.16213,-1.43556 3.93114,-2.84239 3.93114,-3.12627c0,-0.28389 -1.20051,-1.32052 -2.66786,-2.30368c-5.50905,-3.69116 -13.88722,-11.47639 -19.13183,-17.77773c-13.69504,-16.45445 -22.19959,-34.79563 -25.98254,-56.03479c-1.40162,-7.86932 -1.22653,-32.03954 0.29117,-40.19547c3.03901,-16.33128 11.67761,-35.47184 22.36759,-49.55976c4.30293,-5.67072 16.07785,-17.53179 21.56633,-21.72416c5.86923,-4.48322 16.97443,-11.04279 22.05416,-13.02683c6.48552,-2.53312 8.11834,-5.13197 6.01253,-9.5696c-1.04,-2.19163 -4.56832,-4.6519 -6.67141,-4.6519c-2.29919,0 -9.87935,3.45483 -21.53943,9.81702c-16.07793,8.77278 -18.75496,9.70005 -26.59154,9.21114c-7.93561,-0.49508 -11.05432,-2.22702 -15.05007,-8.35784c-3.5429,-5.43603 -7.89366,-8.27658 -11.4729,-7.49049c-4.62997,1.0169 -23.00677,17.35446 -32.10631,28.54348c-6.21276,7.6394 -13.73915,18.23418 -16.97839,23.90022c-0.74126,1.29662 -2.7241,4.75858 -4.40628,7.6932c-1.68218,2.93461 -4.79989,9.17735 -6.92828,13.87277c-17.94665,39.59204 -21.82579,83.53323 -11.14987,126.30134c11.91094,47.7157 40.06122,87.93812 80.36377,114.82747c10.25074,6.83917 25.56123,15.28488 32.36982,17.85611c2.95871,1.11737 8.45903,1.29914 9.95992,0.32916l0,0.00008z"/>
    <path fill="#263143" id="path1" d="m247.17269,464.35049c-1.31596,-0.4394 -4.1005,-2.35976 -6.18786,-4.26746c-4.25654,-3.89023 -6.94161,-9.61303 -6.5729,-14.00915l0.21352,-2.54581l20.27559,0l20.27559,0l-0.15763,3.7645c-0.29365,7.01322 -4.14566,12.69455 -10.83052,15.97406c-3.73832,1.83397 -13.00186,2.42404 -17.01578,1.08387z"/>
   </g>
  </g>
 </g>
</svg>