<svg width="512" height="512" xmlns="http://www.w3.org/2000/svg" version="1.1" xml:space="preserve">

 <g id="g43">
  <title id="title43">Layer 1</title>
  <g id="svg_4">
   <ellipse rx="255.57028" ry="255.57028" id="svg_6" cy="255.99999" cx="255.99999" fill="#e3eef2"/>
   <g transform="matrix(1.2883172,0,0,1.2883172,-70.180018,-121.93083)" id="svg_3">
    <path d="m238.57328,311.87355c-20.53702,-4.4528 -34.98088,-15.11908 -42.39675,-31.30845c-3.64517,-7.95771 -4.94948,-14.85176 -4.83656,-25.56447c0.12449,-11.80879 1.63147,-17.80215 7.33425,-29.16837c4.68729,-9.34235 7.60209,-13.50682 19.91913,-28.4595c13.89759,-16.87143 18.5888,-23.80243 22.78529,-33.66412c2.63812,-6.19955 4.54787,-15.73893 3.94955,-19.72871c-0.35714,-2.38149 -0.22881,-2.92573 0.68978,-2.92573c2.39698,0 18.24979,18.88586 31.97089,38.08766c3.4588,4.8404 9.63897,13.00398 13.73367,18.14131c13.75636,17.25911 16.08134,20.64654 20.46376,29.81524c4.2057,8.79896 6.03563,16.14714 6.50569,26.12364c1.4326,30.40635 -17.53583,53.19497 -49.0827,58.96781c-2.66214,0.48715 -3.51524,0.41382 -3.79932,-0.32648c-0.20151,-0.52506 2.38946,-4.62372 5.75763,-9.10806c7.1478,-9.51648 9.23556,-13.76037 10.36838,-21.07625c1.56862,-10.13029 -1.41039,-18.56794 -13.3136,-37.70923c-6.60248,-10.61728 -13.0065,-22.43548 -13.00874,-24.00682c-0.002,-1.66417 -1.26796,-0.89693 -1.7602,1.06714c-0.63991,2.55322 -7.08916,14.39767 -12.49261,22.94345c-5.49392,8.68888 -10.8944,19.25 -12.34994,24.15137c-2.18519,7.35839 -1.21556,17.1337 2.40139,24.20909c1.55277,3.03745 2.81785,4.8378 10.25994,14.60062c4.85201,6.36507 4.68753,6.62722 -3.09901,4.93895l0.00008,-0.00008l0,-0.00001z" id="path50" fill="#0b8dc1"/>
    <path d="m215.22314,395.42408c-6.26075,-3.09901 -9.75638,-10.4223 -8.03184,-16.82672c0.99472,-3.69405 4.25594,-7.54473 8.15837,-9.63293c2.88954,-1.5462 3.20857,-1.55881 39.55141,-1.55881c34.17498,0 36.8157,0.0882 39.27581,1.31163c7.43773,3.69885 10.90493,11.84654 7.99994,18.79923c-1.53408,3.67159 -3.65037,5.76892 -7.79171,7.72186l-3.55711,1.67746l-36.28263,0.007c-35.51363,0.006 -36.34708,-0.0255 -39.3222,-1.49817l0,-0.00036l-0.00004,0.00004l0,-0.00023z" id="path48" fill="#263143"/>
    <path d="m215.41091,434.01991c-4.01548,-1.82417 -7.17178,-5.68666 -8.07015,-9.87574c-0.41154,-1.919 -0.62285,-4.10515 -0.46954,-4.85821c0.15331,-0.75303 0.4627,-2.24367 0.68758,-3.31253c0.5478,-2.60389 4.25329,-6.71464 7.58468,-8.4142c2.57747,-1.31496 4.48782,-1.38092 39.97307,-1.38092l37.26622,0l3.13544,1.65532c4.69734,2.47992 7.28426,6.59776 7.57267,12.05425c0.32924,6.22865 -2.15657,10.66908 -7.54201,13.47236l-3.81622,1.98648l-36.73496,-0.0156c-33.99368,-0.0145 -36.94775,-0.11228 -39.58675,-1.31115l0,0l-0.00004,-0.00004l0.00001,-0.00002z" id="path46" fill="#263143"/>
    <path fill="#263143" id="path52" d="m213.49054,121.64593c-3.13773,-0.2589 -8.52678,1.80554 -19.94922,7.48438c-11.94807,5.94015 -21.36442,12.07177 -29.58399,19.26562c-20.41964,17.87161 -33.46733,39.39377 -39.58789,65.29688c-2.16292,9.15384 -3.01999,26.88939 -1.75195,36.2832c2.16209,16.01734 8.73384,33.55666 17.63281,47.06446c6.85677,10.40794 19.30143,22.86666 29.8711,29.90625c6.39522,4.25933 12.4776,7.71074 18.82422,10.55859c1.58122,-0.8357 3.19872,-1.66216 5.06054,-2.51563c16.68038,-7.64626 27.79245,-9.96674 56.57813,-11.8164c2.1726,-0.13961 4.05329,-0.296 6.04883,-0.44531c-2.43408,-0.18824 -4.87081,-0.37519 -7.60352,-0.55079c-30.92311,-1.98703 -43.11521,-4.77553 -59.17773,-13.53125c-22.55504,-12.29475 -38.84118,-34.26446 -43.75586,-59.02734c-1.48948,-7.50468 -1.27841,-28.25409 0.36523,-35.90625c4.42749,-20.61272 13.7578,-37.55349 29.22266,-53.05469c11.15793,-11.18419 21.99914,-18.44101 36.65429,-24.53711c5.53321,-2.30163 7.82422,-4.58942 7.82422,-7.80859c0,-2.93625 -1.90747,-5.18 -5.45312,-6.41602c-0.3673,-0.12804 -0.77051,-0.21301 -1.21875,-0.25z"/>
    <path fill="#263143" id="path51" d="m292.875,124.89258c-0.44825,0.037 -0.84949,0.12195 -1.2168,0.25c-3.54565,1.23602 -5.45507,3.47976 -5.45508,6.41601c0,3.21918 2.29296,5.50696 7.82618,7.8086c14.65516,6.0961 25.49439,13.3529 36.65234,24.53711c15.46488,15.50121 24.79711,32.44194 29.22461,53.05468c1.64364,7.65217 1.85471,28.40352 0.36523,35.90821c-4.91468,24.7629 -21.2008,46.73062 -43.75586,59.02539c-16.06254,8.75572 -28.25654,11.54421 -59.17968,13.53125c-28.78571,1.84967 -39.89773,4.17013 -56.57813,11.8164c-8.96207,4.10823 -14.06511,7.5954 -21.16406,14.45899c-12.41498,12.00336 -20.44791,26.73378 -22.91406,42.02148c-1.29494,8.02736 -0.50129,21.31476 1.70312,28.53321c3.82786,12.53458 12.02038,25.04433 21.76758,33.23828c4.71255,3.96159 7.43716,4.91054 9.1582,3.18945c1.54737,-1.54737 0.95745,-5.18993 -1.35547,-8.38281c-3.5838,-4.94728 -6.87655,-12.55208 -8.52539,-19.6875c-1.32243,-5.72296 -1.48815,-8.06596 -1.16796,-16.44336c0.4171,-10.91277 1.47014,-15.70438 5.1914,-23.59375c5.94356,-12.60075 15.45726,-22.56225 27.13281,-28.41406c9.97376,-4.99884 23.61676,-8.1047 39.33789,-8.95508c43.92166,-2.37585 62.9623,-7.45226 86.32422,-23.01172c10.56968,-7.03959 23.01432,-19.49829 29.8711,-29.90625c8.89898,-13.50781 15.46877,-31.0471 17.63086,-47.06445c1.26804,-9.39382 0.41292,-27.12936 -1.75,-36.28321c-6.12057,-25.90313 -19.16822,-47.42525 -39.58789,-65.29687c-8.21958,-7.19386 -17.63591,-13.32547 -29.58399,-19.26563c-11.42246,-5.67885 -16.81344,-7.74327 -19.95117,-7.48437z"/>
    <path d="m247.17269,464.35049c-1.31596,-0.4394 -4.1005,-2.35976 -6.18786,-4.26746c-4.25654,-3.89023 -6.94161,-9.61303 -6.5729,-14.00915l0.21352,-2.54581l20.27559,0l20.27559,0l-0.15763,3.7645c-0.29365,7.01322 -4.14566,12.69455 -10.83052,15.97406c-3.73832,1.83397 -13.00186,2.42404 -17.01578,1.08387l-0.00001,-0.00001z" id="path1" fill="#263143"/>
   </g>
  </g>
 </g>
</svg>