<svg width="512" height="512" xmlns="http://www.w3.org/2000/svg" xmlns:xlink="http://www.w3.org/1999/xlink" xml:space="preserve" version="1.1">
 <defs id="defs1">
  <linearGradient id="linearGradient1073">
   <stop stop-color="#e375ae" id="stop1073" offset="0"/>
   <stop stop-color="#31a7de" id="stop1075" offset="1"/>
  </linearGradient>
  <linearGradient y2="0.5" x2="1" y1="0.5" x1="0" id="linearGradient1074" xlink:href="#linearGradient1073"/>
 </defs>
 <g>
  <title>Layer 1</title>
  <g id="layer1">
   <g id="g1076">
    <circle stroke-width="68.243" fill="url(#linearGradient1074)" r="256" cy="256" cx="256" id="path1073"/>
    <g fill="#e9ecef" transform="matrix(1.3683432,0,0,1.3683432,-94.320767,-94.168027)" id="g1073">
     <path fill="#e9ecef" id="path1072" d="m239.2,177.8c-0.80833,-0.80833 -1.2,-5.37778 -1.2,-14l0,-12.8l-7.06574,0c-8.20874,0 -10.93426,-1.11437 -10.93426,-4.47064c0,-1.32015 5.76113,-11.99182 12.80252,-23.71482c10.78058,-17.94828 13.20257,-21.36201 15.33559,-21.6151c1.3932,-0.1653 3.043,0.31385 3.66623,1.0648c0.67913,0.81831 1.24583,6.54801 1.4144,14.30056l0.28126,12.9352l6.95831,0.30044c7.30245,0.3153 9.54169,1.29754 9.54169,4.18547c0,1.53445 -21.59067,40.5418 -24.22354,43.76409c-1.29741,1.58786 -5.01037,1.61609 -6.57646,0.05z"/>
     <path fill="#e9ecef" id="path1068" d="m328.57143,267.42857c-1.25292,-1.25292 -1.57143,-3.98918 -1.57143,-13.5l0,-11.92857l-7.37756,0c-7.83648,0 -10.31014,-1.26223 -9.38756,-4.79019c0.25901,-0.99046 5.74071,-10.66786 12.18155,-21.50533c10.66943,-17.95255 11.95392,-19.70448 14.4471,-19.70448c4.61995,0 5.13647,1.42795 5.13647,14.2l0,11.8l6.3,0c6.75177,0 8.7,1.03917 8.7,4.64048c0,2.47851 -20.34333,39.12123 -22.82321,41.10952c-2.0812,1.66865 -3.70861,1.57533 -5.60536,-0.32143z"/>
     <path fill="#e9ecef" id="path1066" d="m173.2,278.8c-0.79774,-0.79774 -1.2,-5.15556 -1.2,-13l0,-11.8l-6.56574,0c-7.98768,0 -10.4471,-1.13193 -10.39711,-4.78518c0.0225,-1.64777 4.66248,-10.37924 11.80501,-22.21482c9.05752,-15.0088 12.28609,-19.57526 14.0179,-19.82676c4.46692,-0.64872 5.13994,1.17779 5.13994,13.9492l0,11.87756l6.34501,0c6.45117,0 9.65499,1.65744 9.65499,4.99482c0,1.47007 -20.37595,37.44493 -22.80029,40.25518c-1.75306,2.03211 -4.28545,2.26426 -5.99971,0.55z"/>
     <path fill="#e9ecef" id="path1064" d="m298,401.82846c0,-0.64435 1.18136,-4.12446 2.62523,-7.73359c3.15155,-7.87762 4.18461,-19.89249 2.43446,-28.31363c-2.51207,-12.08729 -7.84869,-12.96224 -13.84554,-2.26999c-6.4659,11.52854 -10.75553,13.41822 -7.78981,3.43158c2.01753,-6.79377 2.01333,-17.08044 -0.01,-24.01133c-3.02649,-10.36819 -11.98387,-23.2772 -15.77646,-22.73638c-1.86497,0.26594 -2.23386,1.19903 -2.88793,7.30488c-1.53962,14.37266 -10.0561,26.26108 -24.22395,33.81495c-4.52098,2.41045 -6.70977,4.38294 -9,8.11059c-4.1531,6.75972 -4.07262,13.30721 0.28952,23.55552c1.75135,4.11459 3.18428,7.82709 3.18428,8.25c0,2.99625 -15.43273,-4.52799 -24.98212,-12.18004c-17.65468,-14.1471 -27.00655,-33.54564 -27.26255,-56.55102c-0.0914,-8.21262 0.37346,-11.60864 2.60077,-19c3.28036,-10.88591 9.46239,-23.98631 13.10994,-27.78136c1.47029,-1.52974 4.47615,-3.91947 6.67969,-5.31051c4.38675,-2.76923 7.79576,-8.84821 7.83251,-13.967c0.0535,-7.45744 5.64085,-8.51771 10.22916,-1.94113c4.27418,6.12633 6.96999,14.96022 7.55051,24.74231c0.58047,9.78105 2.36977,13.14786 4.31349,8.11638c2.06847,-5.35441 2.06587,-8.85237 -0.0129,-17.35869c-3.13546,-12.83032 -4.65455,-31.18605 -3.27159,-39.53194c1.96847,-11.87933 7.04726,-13.676 11.85267,-4.19299c3.68847,7.27885 6.13144,10.30887 10.78646,13.37846c4.4076,2.90644 4.12667,2.2795 -2.24674,-5.01397c-9.57439,-10.95653 -13.94878,-33.56813 -8.82932,-45.63956c2.51859,-5.93869 7.16185,-11.47813 12.48376,-14.89319c5.68872,-3.65044 8.05904,-3.70667 9.79122,-0.23227c0.92993,1.86526 0.8606,3.27955 -0.33246,6.78096c-1.8278,5.36433 -1.17476,10.88229 2.11267,17.85136c3.5258,7.47437 8.31612,12.35887 20.10431,20.49955c12.37696,8.54729 18.12095,14.68005 22.91464,24.46562c5.46973,11.1656 6.85938,18.0139 7.51367,37.02797c0.58498,17 0.58498,17 2.34805,11.5c0.9697,-3.025 2.03025,-7.3 2.35679,-9.5c0.8157,-5.49562 2.88503,-8.5 5.85457,-8.5c4.81817,0 17.36211,20.94938 21.03802,35.13519c2.02921,7.83099 2.03656,23.50268 0.0146,31.12171c-4.61643,17.39526 -20.6249,36.2436 -41.50684,48.87007c-6.84998,4.1419 -8.04277,4.54255 -8.04277,2.70149l-0.00001,0z"/>
     <path fill="#e9ecef" id="path1062" d="m252.24216,410.0047c-8.29281,-1.7589 -9.38421,-2.79039 -15.17088,-14.33808c-4.18415,-8.34973 -5.44507,-11.92069 -5.5,-15.57615c-0.0939,-6.24562 3.41753,-10.90123 11.45175,-15.18343c10.99039,-5.85782 19.34203,-15.9234 22.98724,-27.70474c1.01595,-3.28355 2.34234,-5.7023 3.12703,-5.7023c0.74948,0 2.9377,3.13933 4.8627,6.9763c3.26665,6.51118 3.5,7.61125 3.5,16.5c0,9.0524 -0.19113,9.90654 -3.86231,17.25985c-2.12426,4.25488 -3.60089,8.41738 -3.28138,9.25c0.38067,0.992 1.91889,1.51385 4.46227,1.51385c5.3638,0 10.93363,-4.26971 16.20715,-12.42404c2.33902,-3.61678 4.82928,-6.57596 5.53392,-6.57596c1.92696,0 2.90262,11.99453 1.61012,19.79451c-0.66895,4.03697 -2.7401,9.8285 -5.3788,15.04064c-3.84002,7.58507 -4.71135,8.62787 -8.29097,9.92259c-4.78025,1.72897 -26.09973,2.5531 -32.25784,1.24696z"/>
    </g>
   </g>
  </g>
 </g>
</svg>